HIERARCHY
ROOT Hips
{
	OFFSET 0.000000 100.481300 0.000000
	CHANNELS 6 Xposition Yposition Zposition Xrotation Yrotation Zrotation 
	JOINT Spine
	{
		OFFSET -0.279200 12.230698 -2.892100
		CHANNELS 3 Xrotation Yrotation Zrotation
		JOINT Spine1
		{
			OFFSET -0.232667 10.192268 -1.242267
			CHANNELS 3 Xrotation Yrotation Zrotation
			JOINT Spine1_split
			{
				OFFSET -0.232667 10.192268 -1.242267
				CHANNELS 3 Xrotation Yrotation Zrotation
				JOINT Spine2
				{
					OFFSET -0.232667 10.192268 -1.242267
					CHANNELS 3 Xrotation Yrotation Zrotation
					JOINT Neck
					{
						OFFSET -0.418800 17.814194 8.416900
						CHANNELS 3 Xrotation Yrotation Zrotation
						JOINT Head
						{
							OFFSET 0.000000 7.031097 3.806800
							CHANNELS 3 Xrotation Yrotation Zrotation
							JOINT HeadTop_End
							{
								OFFSET 0.000000 24.646606 12.978600
								CHANNELS 3 Xrotation Yrotation Zrotation
								End Site
								{
									OFFSET 0.000000 0.000000 0.000000
								}
							}
						}
					}
					JOINT LeftShoulder
					{
						OFFSET 8.476499 7.247704 -3.868750
						CHANNELS 3 Xrotation Yrotation Zrotation
						JOINT LeftShoulder_split
						{
							OFFSET 8.476499 7.247704 -3.868750
							CHANNELS 3 Xrotation Yrotation Zrotation
							JOINT LeftArm
							{
								OFFSET 9.308998 -2.777710 0.208600
								CHANNELS 3 Xrotation Yrotation Zrotation
								JOINT LeftForeArm
								{
									OFFSET 29.972298 0.000000 0.000000
									CHANNELS 3 Xrotation Yrotation Zrotation
									JOINT LeftHand
									{
										OFFSET 26.026505 0.000000 0.000000
										CHANNELS 3 Xrotation Yrotation Zrotation
										JOINT LeftHandThumb1
										{
											OFFSET 12.240501 -7.147949 9.207150
											CHANNELS 3 Xrotation Yrotation Zrotation
											JOINT LeftHandThumb2
											{
												OFFSET 4.138618 -2.389435 2.389433
												CHANNELS 3 Xrotation Yrotation Zrotation
												JOINT LeftHandThumb3
												{
													OFFSET 2.726913 -1.574387 1.574386
													CHANNELS 3 Xrotation Yrotation Zrotation
													JOINT LeftHandThumb4
													{
														OFFSET 3.941010 -2.275345 2.275342
														CHANNELS 3 Xrotation Yrotation Zrotation
														End Site
														{
															OFFSET 0.000000 0.000000 0.000000
														}
													}
												}
											}
										}
										JOINT LeftHandIndex1
										{
											OFFSET 24.424698 -1.985611 5.953459
											CHANNELS 3 Xrotation Yrotation Zrotation
											JOINT LeftHandIndex2
											{
												OFFSET 6.426697 0.000000 0.000000
												CHANNELS 3 Xrotation Yrotation Zrotation
												JOINT LeftHandIndex3
												{
													OFFSET 5.337898 0.000000 0.000000
													CHANNELS 3 Xrotation Yrotation Zrotation
													JOINT LeftHandIndex4
													{
														OFFSET 4.409401 0.000000 0.000000
														CHANNELS 3 Xrotation Yrotation Zrotation
														End Site
														{
															OFFSET 0.000000 0.000000 0.000000
														}
													}
												}
											}
										}
										JOINT LeftHandMiddle1
										{
											OFFSET 23.810104 0.000000 0.000000
											CHANNELS 3 Xrotation Yrotation Zrotation
											JOINT LeftHandMiddle2
											{
												OFFSET 7.176498 0.000000 0.000000
												CHANNELS 3 Xrotation Yrotation Zrotation
												JOINT LeftHandMiddle3
												{
													OFFSET 6.774902 0.000000 0.000000
													CHANNELS 3 Xrotation Yrotation Zrotation
													JOINT LeftHandMiddle4
													{
														OFFSET 5.403328 0.000000 0.000000
														CHANNELS 3 Xrotation Yrotation Zrotation
														End Site
														{
															OFFSET 0.000000 0.000000 0.000000
														}
													}
												}
											}
										}
										JOINT LeftHandRing1
										{
											OFFSET 22.908401 -0.839279 -6.020567
											CHANNELS 3 Xrotation Yrotation Zrotation
											JOINT LeftHandRing2
											{
												OFFSET 6.337502 0.000000 0.000000
												CHANNELS 3 Xrotation Yrotation Zrotation
												JOINT LeftHandRing3
												{
													OFFSET 5.779297 0.000000 0.000000
													CHANNELS 3 Xrotation Yrotation Zrotation
													JOINT LeftHandRing4
													{
														OFFSET 4.965698 0.000000 0.000000
														CHANNELS 3 Xrotation Yrotation Zrotation
														End Site
														{
															OFFSET 0.000000 0.000000 0.000000
														}
													}
												}
											}
										}
										JOINT LeftHandPinky1
										{
											OFFSET 20.037003 -1.530319 -10.950146
											CHANNELS 3 Xrotation Yrotation Zrotation
											JOINT LeftHandPinky2
											{
												OFFSET 5.254700 0.000000 0.000000
												CHANNELS 3 Xrotation Yrotation Zrotation
												JOINT LeftHandPinky3
												{
													OFFSET 4.810204 0.000000 0.000000
													CHANNELS 3 Xrotation Yrotation Zrotation
													JOINT LeftHandPinky4
													{
														OFFSET 3.647202 0.000000 0.000000
														CHANNELS 3 Xrotation Yrotation Zrotation
														End Site
														{
															OFFSET 0.000000 0.000000 0.000000
														}
													}
												}
											}
										}
									}
								}
							}
						}
					}
					JOINT RightShoulder
					{
						OFFSET -7.570500 7.247704 -3.868750
						CHANNELS 3 Xrotation Yrotation Zrotation
						JOINT RightShoulder_split
						{
							OFFSET -7.570500 7.247704 -3.868750
							CHANNELS 3 Xrotation Yrotation Zrotation
							JOINT RightArm
							{
								OFFSET -9.308998 -2.777710 0.208500
								CHANNELS 3 Xrotation Yrotation Zrotation
								JOINT RightForeArm
								{
									OFFSET -29.972300 0.000000 0.000000
									CHANNELS 3 Xrotation Yrotation Zrotation
									JOINT RightHand
									{
										OFFSET -26.026505 0.000000 0.000000
										CHANNELS 3 Xrotation Yrotation Zrotation
										JOINT RightHandThumb1
										{
											OFFSET -12.240601 -7.148026 9.207092
											CHANNELS 3 Xrotation Yrotation Zrotation
											JOINT RightHandThumb2
											{
												OFFSET -4.138618 -2.389435 2.389433
												CHANNELS 3 Xrotation Yrotation Zrotation
												JOINT RightHandThumb3
												{
													OFFSET -2.726974 -1.574417 1.574421
													CHANNELS 3 Xrotation Yrotation Zrotation
													JOINT RightHandThumb4
													{
														OFFSET -3.941010 -2.275345 2.275343
														CHANNELS 3 Xrotation Yrotation Zrotation
														End Site
														{
															OFFSET 0.000000 0.000000 0.000000
														}
													}
												}
											}
										}
										JOINT RightHandIndex1
										{
											OFFSET -24.424698 -1.985657 5.953444
											CHANNELS 3 Xrotation Yrotation Zrotation
											JOINT RightHandIndex2
											{
												OFFSET -6.426697 0.000000 0.000000
												CHANNELS 3 Xrotation Yrotation Zrotation
												JOINT RightHandIndex3
												{
													OFFSET -5.337898 0.000000 0.000000
													CHANNELS 3 Xrotation Yrotation Zrotation
													JOINT RightHandIndex4
													{
														OFFSET -4.409401 0.000000 0.000000
														CHANNELS 3 Xrotation Yrotation Zrotation
														End Site
														{
															OFFSET 0.000000 0.000000 0.000000
														}
													}
												}
											}
										}
										JOINT RightHandMiddle1
										{
											OFFSET -23.810097 0.000000 0.000000
											CHANNELS 3 Xrotation Yrotation Zrotation
											JOINT RightHandMiddle2
											{
												OFFSET -7.176498 0.000000 0.000000
												CHANNELS 3 Xrotation Yrotation Zrotation
												JOINT RightHandMiddle3
												{
													OFFSET -6.774902 0.000000 0.000000
													CHANNELS 3 Xrotation Yrotation Zrotation
													JOINT RightHandMiddle4
													{
														OFFSET -5.403328 0.000000 0.000000
														CHANNELS 3 Xrotation Yrotation Zrotation
														End Site
														{
															OFFSET 0.000000 0.000000 0.000000
														}
													}
												}
											}
										}
										JOINT RightHandRing1
										{
											OFFSET -22.908302 -0.839325 -6.020576
											CHANNELS 3 Xrotation Yrotation Zrotation
											JOINT RightHandRing2
											{
												OFFSET -6.337502 0.000000 0.000000
												CHANNELS 3 Xrotation Yrotation Zrotation
												JOINT RightHandRing3
												{
													OFFSET -5.779297 0.000000 0.000000
													CHANNELS 3 Xrotation Yrotation Zrotation
													JOINT RightHandRing4
													{
														OFFSET -4.965698 0.000000 0.000000
														CHANNELS 3 Xrotation Yrotation Zrotation
														End Site
														{
															OFFSET 0.000000 0.000000 0.000000
														}
													}
												}
											}
										}
										JOINT RightHandPinky1
										{
											OFFSET -20.037003 -1.530334 -10.950259
											CHANNELS 3 Xrotation Yrotation Zrotation
											JOINT RightHandPinky2
											{
												OFFSET -5.254700 0.000000 0.000000
												CHANNELS 3 Xrotation Yrotation Zrotation
												JOINT RightHandPinky3
												{
													OFFSET -4.810204 0.000000 0.000000
													CHANNELS 3 Xrotation Yrotation Zrotation
													JOINT RightHandPinky4
													{
														OFFSET -3.647202 0.000000 0.000000
														CHANNELS 3 Xrotation Yrotation Zrotation
														End Site
														{
															OFFSET 0.000000 0.000000 0.000000
														}
													}
												}
											}
										}
									}
								}
							}
						}
					}
				}
			}
		}
	}
	JOINT LeftUpLeg
	{
		OFFSET 15.427100 -6.655098 0.678600
		CHANNELS 3 Xrotation Yrotation Zrotation
		JOINT LeftLeg
		{
			OFFSET 4.081073 -39.591068 13.024000
			CHANNELS 3 Xrotation Yrotation Zrotation
			JOINT LeftFoot
			{
				OFFSET -4.081074 -37.707932 -15.979700
				CHANNELS 3 Xrotation Yrotation Zrotation
				JOINT LeftToeBase
				{
					OFFSET 5.346399 -15.068900 20.645000
					CHANNELS 3 Xrotation Yrotation Zrotation
					JOINT LeftToe_End
					{
						OFFSET 2.754700 0.931300 11.300900
						CHANNELS 3 Xrotation Yrotation Zrotation
						End Site
						{
							OFFSET 0.000000 0.000000 0.000000
						}
					}
				}
			}
		}
	}
	JOINT RightUpLeg
	{
		OFFSET -15.569500 -6.655098 0.678600
		CHANNELS 3 Xrotation Yrotation Zrotation
		JOINT RightLeg
		{
			OFFSET -4.081825 -39.591045 13.023800
			CHANNELS 3 Xrotation Yrotation Zrotation
			JOINT RightFoot
			{
				OFFSET 4.081824 -37.707954 -15.979600
				CHANNELS 3 Xrotation Yrotation Zrotation
				JOINT RightToeBase
				{
					OFFSET -5.346400 -15.068900 20.645000
					CHANNELS 3 Xrotation Yrotation Zrotation
					JOINT RightToe_End
					{
						OFFSET -2.754700 0.931300 11.300900
						CHANNELS 3 Xrotation Yrotation Zrotation
						End Site
						{
							OFFSET 0.000000 0.000000 0.000000
						}
					}
				}
			}
		}
	}
}
MOTION
Frames: 4
Frame Time: 0.016667
0.288788 78.878159 -0.156861 3.037455 -58.355039 6.232828 11.190423 0.276978 -2.458368 8.434584 0.027684 -5.592322 0.000000 0.000000 0.000000 8.457036 0.027894 -5.591864 -21.556292 25.063284 12.062618 -0.293597 25.465686 -3.208706 0.000001 0.000000 -0.000001 -6.221639 -11.503825 -4.023761 0.000000 0.000000 0.000000 -23.061628 9.569257 -36.639826 0.046362 -43.170945 -0.010989 22.743637 -5.684979 15.979062 -1.064219 -7.954937 8.490078 2.373375 19.986141 -2.038307 0.808202 1.237762 2.631731 0.000001 -0.000000 -0.000001 13.340867 -1.006672 10.682279 -0.167567 0.303411 -31.105651 -0.143371 0.303615 -32.256241 0.000001 0.000000 -0.000002 8.495449 -0.329584 -0.915309 0.231509 0.661235 -29.901868 0.444114 0.213449 -44.357017 0.000002 -0.000001 0.000000 6.111745 3.150927 -16.210925 0.047079 0.322435 -30.125485 0.408803 0.818950 -42.140645 0.000001 -0.000000 0.000001 -5.636031 7.709862 -13.878627 0.224359 0.276581 -46.588375 0.261281 0.249377 -46.286846 -0.000003 0.000000 -0.000002 -5.488235 10.658257 2.466468 0.000000 0.000000 0.000000 -41.473879 -26.755579 30.079030 24.955770 111.862898 -23.308828 -8.702467 12.423111 -9.801927 0.264989 10.061095 -10.888514 1.383799 -17.412864 3.016266 3.342392 -13.253752 -8.262746 -0.000004 0.000002 -0.000000 19.443595 11.174452 -13.340188 -0.118676 -0.322696 18.035615 -0.089887 -0.286618 23.256582 -0.000000 -0.000002 -0.000001 4.320465 2.436944 -4.811736 0.349148 -0.461236 26.890342 0.467497 0.154057 39.044848 -0.000001 0.000000 -0.000001 -7.005641 -10.695168 5.719824 0.111890 -0.089178 26.155878 0.451292 -0.473591 33.265057 0.000002 -0.000000 -0.000000 -19.433565 -20.238213 5.987849 0.223797 -0.085800 36.844578 0.260788 -0.047503 36.471708 -0.000002 0.000000 -0.000000 -34.680292 8.733541 27.676958 40.313938 -8.737387 -10.519001 -7.470822 -1.705577 -10.811960 -0.367899 1.237874 0.745982 0.000000 0.000003 -0.000000 -31.022494 -7.193572 -29.202153 46.885659 5.280631 -6.185184 -19.296635 0.939573 23.038841 -0.365226 -0.996769 -0.740847 0.000000 -0.000001 -0.000000 
-0.019855 78.993553 -0.122683 4.801517 -58.955816 8.399997 10.571597 0.232528 -2.761078 7.278659 0.995590 -6.029102 0.000000 0.000000 0.000000 7.868304 0.668160 -5.886728 -19.835342 24.498190 8.157677 -2.779489 23.606788 2.798135 -0.000000 0.000000 -0.000001 -6.438887 -13.164597 -4.289230 0.000000 0.000000 0.000000 -20.844397 7.515328 -36.011360 -0.375289 -40.249041 -0.284891 20.711466 -9.083160 15.351149 -1.038630 -7.822555 8.542164 2.457020 20.247030 -1.940284 0.878727 1.498675 2.761553 0.000000 0.000000 0.000000 13.341822 -1.007628 10.381773 -0.167193 0.303668 -31.406234 -0.142189 0.303237 -32.556862 0.000002 -0.000000 -0.000001 8.490663 -0.326623 -1.215857 0.233148 0.662217 -30.202461 0.445754 0.213984 -44.657621 0.000001 -0.000001 -0.000000 6.108706 3.154425 -16.511140 0.047238 0.324475 -30.426092 0.411743 0.818632 -42.441221 0.000001 -0.000000 0.000000 -5.637287 7.711633 -14.177658 0.225525 0.277505 -46.888982 0.262660 0.250119 -46.587501 -0.000001 0.000000 -0.000004 -5.541684 9.386655 2.275659 0.000000 0.000000 0.000000 -42.475529 -27.794017 27.164161 22.803326 114.466239 -20.890176 -4.795846 10.170876 -11.609668 0.377264 9.088731 -11.243422 1.701228 -18.294549 2.663699 3.474374 -14.181420 -8.671792 -0.000000 -0.000001 0.000001 19.445006 11.175376 -12.309060 -0.117727 -0.323588 19.070499 -0.086069 -0.286043 24.291431 -0.000000 0.000000 0.000000 4.313794 2.427125 -3.776351 0.354730 -0.465008 27.925129 0.473456 0.151396 40.079584 0.000001 0.000002 0.000000 -6.995298 -10.694677 6.754734 0.111838 -0.096141 27.190701 0.461569 -0.474433 34.299916 -0.000003 0.000001 -0.000001 -19.413734 -20.226876 7.025160 0.227317 -0.089625 37.879379 0.265197 -0.050658 37.506515 0.000001 0.000000 0.000000 -34.476237 9.024478 27.146449 39.925902 -8.029844 -10.375230 -7.785258 -1.436736 -11.365060 -0.406970 1.237417 0.730362 0.000000 0.000000 -0.000000 -32.029124 -6.324955 -29.437924 47.036323 5.299734 -6.192064 -19.361846 1.053352 22.993297 -0.716208 -0.900137 -0.703399 0.000000 -0.000000 -0.000000 
-0.648203 79.300690 0.009780 6.545422 -60.164350 10.481171 9.970249 0.177883 -3.056330 5.412855 1.778463 -6.941526 0.000000 0.000000 0.000000 6.233832 0.975658 -6.719544 -17.015547 23.940351 3.257991 -3.784288 21.629765 8.240863 0.000000 -0.000001 0.000001 -6.702463 -14.957874 -4.571851 0.000000 0.000000 0.000000 -18.021915 7.338824 -35.052558 -0.477867 -38.363311 -0.338812 19.213307 -11.154209 13.927271 -0.979499 -7.455856 8.678442 2.699610 20.954250 -1.668304 1.051489 2.224725 3.105775 0.000000 0.000000 -0.000002 13.344379 -1.010285 9.557777 -0.166138 0.304211 -32.230454 -0.138968 0.306123 -33.381108 -0.000001 0.000000 0.000000 8.482577 -0.318405 -2.040056 0.237676 0.664836 -31.026715 0.450412 0.212327 -45.481861 0.000002 -0.000000 0.000001 6.100515 3.164012 -17.334387 0.047633 0.330020 -31.250298 0.419850 0.820335 -43.265509 0.000002 0.000000 -0.000001 -5.619230 7.707122 -15.003455 0.228783 0.280022 -47.713181 0.266528 0.252123 -47.411714 0.000000 -0.000000 0.000001 -5.596366 8.117636 2.079309 0.000000 0.000000 0.000000 -42.075338 -29.071129 25.529881 21.515791 116.635698 -19.361536 -0.202632 8.375954 -12.996904 0.500858 7.974841 -11.648251 2.059898 -19.306433 2.263678 3.617938 -15.244892 -9.140275 0.000001 0.000000 -0.000002 19.446609 11.176482 -11.126336 -0.116625 -0.324514 20.255858 -0.081678 -0.285352 25.476838 0.000001 -0.000002 -0.000000 4.304652 2.415570 -2.590508 0.361295 -0.469200 29.110539 0.480330 0.148494 41.264902 0.000000 -0.000001 -0.000001 -6.989941 -10.702553 7.938600 0.111969 -0.104142 28.376028 0.465000 -0.475120 35.485312 0.000001 0.000002 0.000000 -19.401467 -20.220563 8.211979 0.231371 -0.093854 39.064806 0.270406 -0.054250 38.691871 0.000001 0.000001 -0.000000 -33.345318 9.383299 26.798235 39.299556 -7.013728 -10.105465 -8.513097 -0.847394 -12.350769 -0.426067 1.237197 0.708075 0.000000 0.000002 -0.000000 -32.650224 -5.382141 -29.266039 46.823764 5.381175 -6.168247 -19.418151 1.378864 22.808027 -1.699995 -0.657371 -0.366454 -0.000000 -0.000001 0.000000 
-1.546473 79.767075 0.190416 7.705283 -61.368990 11.870266 9.401261 0.120063 -3.339808 3.106746 1.642278 -8.093142 0.000000 0.000000 0.000000 4.027166 1.010944 -7.900988 -14.200326 23.558221 -1.824859 -3.513580 20.287865 10.479021 -0.000001 0.000000 -0.000000 -6.970879 -16.475492 -4.859276 0.000000 0.000000 0.000000 -16.573505 10.147411 -34.139478 -0.206033 -37.784685 -0.168385 18.782576 -9.426704 9.926438 -0.892368 -6.907662 8.881323 3.057547 22.012766 -1.265167 1.301774 3.311248 3.616890 0.000001 -0.000000 0.000000 13.348087 -1.014337 8.326601 -0.164573 0.305125 -33.462022 -0.134132 0.310379 -34.612592 0.000000 0.000002 -0.000001 8.470786 -0.305802 -3.271503 0.244492 0.668660 -32.258277 0.457304 0.212227 -46.713358 -0.000003 0.000000 0.000001 6.099443 3.178699 -18.565238 0.052116 0.338264 -32.481798 0.431916 0.825449 -44.497118 -0.000000 -0.000000 -0.000002 -5.597889 7.702232 -16.236944 0.233569 0.283737 -48.944729 0.272432 0.255058 -48.643224 0.000001 -0.000000 0.000002 -5.673095 6.670778 1.984881 0.000000 0.000000 0.000000 -39.956542 -30.758510 25.815252 19.616170 120.069644 -17.091321 4.611843 6.349233 -13.813228 0.623013 6.825575 -12.064246 2.424502 -20.352717 1.854926 3.757493 -16.342891 -9.623879 0.000001 -0.000001 0.000002 19.448238 11.177668 -9.904345 -0.115463 -0.325460 21.478855 -0.077158 -0.284798 26.699875 -0.000001 -0.000001 -0.000001 4.293694 2.403199 -1.367024 0.368094 -0.473352 30.333533 0.487469 0.145681 42.487834 -0.000000 0.000002 -0.000001 -6.994989 -10.712237 9.159833 0.112258 -0.112081 29.599021 0.469051 -0.475590 36.708326 -0.000001 0.000001 0.000001 -19.401359 -20.222648 9.433951 0.235616 -0.098211 40.287779 0.275817 -0.057759 39.914891 -0.000000 0.000000 -0.000000 -31.636080 9.909318 26.595771 38.353022 -6.240571 -9.754214 -9.261140 -0.166191 -13.365540 -0.433678 1.237114 0.704062 0.000000 0.000000 -0.000000 -32.307683 -4.611504 -28.816459 46.234630 5.175810 -6.094956 -19.647767 1.706962 22.707864 -2.979490 -0.341868 0.076919 0.000000 0.000002 0.000000 
